<?xml version="1.0" encoding="UTF-8"?>
<svg id="Layer_2" data-name="Layer 2" xmlns="http://www.w3.org/2000/svg" viewBox="0 0 532.15 295.95">
  <defs>
    <style>
      .cls-1 {
        fill: #f7e5cf;
        stroke-width: 0px;
      }
    </style>
  </defs>
  <g id="Layer_1-2" data-name="Layer 1">
    <g>
      <g>
        <path class="cls-1" d="M87.75,160.78h24.77l6.38,6.36v26.91l-6.38,6.31h-24.77v-8.93h2.4v-21.72h-2.4v-8.93ZM101.14,191.43h5.47l1.3-1.23v-19.2l-1.3-1.28h-5.47v21.72Z"/>
        <path class="cls-1" d="M140.98,191.43h7.01v-1.57h9.02v10.5h-29.42v-8.93h2.4v-21.72h-2.4v-8.93h29.42v10.45h-9.02v-1.52h-7.01v6.37h1.63v-1.52h8.98v12.02h-8.98v-1.57h-1.63v6.42Z"/>
        <path class="cls-1" d="M189.13,169.71h-1.3v-8.93h16.56v8.93h-3.6l-7.34,21.72h2.06v8.93h-21.26v-8.93h1.73l-7.3-21.72h-3.22v-8.93h16.13v8.93h-1.34l4.46,13.21,4.42-13.21Z"/>
        <path class="cls-1" d="M225.56,191.43h7.01v-1.57h9.02v10.5h-29.42v-8.93h2.4v-21.72h-2.4v-8.93h29.42v10.45h-9.02v-1.52h-7.01v6.37h1.63v-1.52h8.98v12.02h-8.98v-1.57h-1.63v6.42Z"/>
        <path class="cls-1" d="M263.43,169.71v21.72h7.2v-2.38h8.98v11.31h-29.57v-8.93h2.4v-21.72h-2.4v-8.93h15.79v8.93h-2.4Z"/>
        <path class="cls-1" d="M287.43,167.14l6.38-6.36h17.62l6.38,6.36v26.91l-6.38,6.31h-17.62l-6.38-6.31v-26.91ZM306.82,171l-1.25-1.28h-5.86l-1.3,1.28v19.2l1.3,1.23h5.86l1.25-1.23v-19.2Z"/>
        <path class="cls-1" d="M351.27,185.35h-11.38v6.08h2.4v8.93h-15.79v-8.93h2.4v-21.72h-2.4v-8.93h24.77l6.38,6.35v11.9l-6.38,6.31ZM339.89,176.42h5.47l1.3-1.23v-4.2l-1.3-1.27h-5.47v6.7Z"/>
        <path class="cls-1" d="M379.73,191.43h7.01v-1.57h9.02v10.5h-29.42v-8.93h2.4v-21.72h-2.4v-8.93h29.42v10.45h-9.02v-1.52h-7.01v6.37h1.63v-1.52h8.98v12.02h-8.98v-1.57h-1.63v6.42Z"/>
        <path class="cls-1" d="M417.6,191.43h2.4v8.93h-15.79v-8.93h2.4v-21.72h-2.4v-8.93h24.77l6.38,6.35v10.1l-2.64,2.61,2.64,2.57v9.03h2.4v8.93h-13.39v-14.73l-1.3-1.28h-5.47v7.08ZM417.6,175.42h5.47l1.3-1.27v-3.16l-1.3-1.27h-5.47v5.7Z"/>
        <path class="cls-1" d="M96.54,225.99h-10.99v-5l-1.25-1.27h-5.86l-1.3,1.28v19.2l1.3,1.23h5.86l1.25-1.24v-4.75h10.99v8.6l-6.38,6.32h-17.62l-6.38-6.31v-26.91l6.38-6.36h17.62l6.38,6.35v8.86Z"/>
        <path class="cls-1" d="M105.22,217.14l6.38-6.36h17.62l6.38,6.36v26.91l-6.38,6.31h-17.62l-6.38-6.31v-26.91ZM124.61,221l-1.25-1.28h-5.86l-1.3,1.28v19.2l1.3,1.23h5.86l1.25-1.23v-19.2Z"/>
        <path class="cls-1" d="M168.44,250.37l-10.75-17.73v8.79h2.4v8.93h-15.79v-8.93h2.4v-21.72h-2.4v-8.93h13.01l10.99,18.15v-9.22h-2.4v-8.93h15.79v8.93h-2.4v21.72h2.4v8.93h-13.25Z"/>
        <path class="cls-1" d="M205.16,235.02h-1.63v6.42h4.61v8.93h-18v-8.93h2.4v-21.72h-2.4v-8.93h29.42v10.45h-9.02v-1.52h-7.01v6.37h1.63v-1.52h8.98v12.02h-8.98v-1.57Z"/>
        <path class="cls-1" d="M240.68,241.43h7.01v-1.57h9.02v10.5h-29.42v-8.93h2.4v-21.72h-2.4v-8.93h29.42v10.45h-9.02v-1.52h-7.01v6.37h1.63v-1.52h8.98v12.02h-8.98v-1.57h-1.63v6.42Z"/>
        <path class="cls-1" d="M278.55,241.43h2.4v8.93h-15.79v-8.93h2.4v-21.72h-2.4v-8.93h24.77l6.38,6.35v10.1l-2.64,2.61,2.64,2.57v9.03h2.4v8.93h-13.39v-14.73l-1.3-1.28h-5.47v7.08ZM278.55,225.42h5.47l1.3-1.27v-3.16l-1.3-1.27h-5.47v5.7Z"/>
        <path class="cls-1" d="M320.5,241.43h7.01v-1.57h9.02v10.5h-29.42v-8.93h2.4v-21.72h-2.4v-8.93h29.42v10.45h-9.02v-1.52h-7.01v6.37h1.63v-1.52h8.98v12.02h-8.98v-1.57h-1.63v6.42Z"/>
        <path class="cls-1" d="M369.12,250.37l-10.75-17.73v8.79h2.4v8.93h-15.79v-8.93h2.4v-21.72h-2.4v-8.93h13.01l10.99,18.15v-9.22h-2.4v-8.93h15.79v8.93h-2.4v21.72h2.4v8.93h-13.25Z"/>
        <path class="cls-1" d="M421.2,225.99h-10.99v-5l-1.25-1.27h-5.86l-1.3,1.28v19.2l1.3,1.23h5.86l1.25-1.24v-4.75h10.99v8.6l-6.38,6.32h-17.62l-6.38-6.31v-26.91l6.38-6.36h17.62l6.38,6.35v8.86Z"/>
        <path class="cls-1" d="M443.28,241.43h7.01v-1.57h9.02v10.5h-29.42v-8.93h2.4v-21.72h-2.4v-8.93h29.42v10.45h-9.02v-1.52h-7.01v6.37h1.63v-1.52h8.98v12.02h-8.98v-1.57h-1.63v6.42Z"/>
        <path class="cls-1" d="M157.72,278.2h-4.49v-1.16h-1.2v10.86h1.2v4.47h-7.92v-4.47h1.22v-10.86h-1.22v1.16h-4.49v-5.63h16.9v5.63Z"/>
        <path class="cls-1" d="M181.84,289.19l-3.19,3.17h-8.81l-3.19-3.16v-12.17h-1.2v-4.47h7.9v4.47h-1.2v10.24l.65.62h2.93l.62-.62v-10.24h-1.2v-4.47h7.9v4.47h-1.2v12.15Z"/>
        <path class="cls-1" d="M197.8,277.04v10.86h3.6v-1.19h4.49v5.66h-14.78v-4.47h1.2v-10.86h-1.2v-4.47h7.9v4.47h-1.2Z"/>
        <path class="cls-1" d="M222.71,284.74h-5.88l-3.19-3.15v-5.83l3.19-3.18h8.81l3.19,3.17v3.88h-5.5v-1.95l-.62-.64h-2.93l-.65.64v1.98l.65.61h5.86l3.19,3.18v5.75l-3.19,3.16h-8.81l-3.19-3.16v-3.8h5.5v1.85l.65.64h2.93l.62-.62v-1.9l-.62-.64Z"/>
        <path class="cls-1" d="M252.26,272.57v4.47h-1.01l4.39,10.86h1.2v4.47h-7.68v-4.47h.65l-.29-.88h-5.3l-.31.88h.65v4.47h-7.66v-4.47h1.2l4.39-10.86h-.86v-4.47h10.63ZM245.59,283.22h2.54l-1.27-3.14-1.27,3.14Z"/>
        <path class="cls-1" d="M260.25,292.37v-4.47h5.5v4.44l-3.62,3.61v-3.58h-1.87Z"/>
        <path class="cls-1" d="M287.39,275.75l3.19-3.18h8.81l3.19,3.18v13.46l-3.19,3.16h-8.81l-3.19-3.16v-13.46ZM297.09,277.68l-.62-.64h-2.93l-.65.64v9.6l.65.62h2.93l.62-.62v-9.6Z"/>
        <path class="cls-1" d="M317.46,287.9h1.2v4.47h-7.9v-4.47h1.2v-10.86h-1.2v-4.47h7.9v4.47h-1.2v2.8l2.86-2.8h-.53v-4.47h9.5v4.47h-1.66l-5.42,5.37,5.57,5.49h1.51v4.47h-9.5v-4.47h.55l-1.94-1.9-.94.95v.95Z"/>
        <path class="cls-1" d="M343.65,277.04v10.86h3.6v-1.19h4.49v5.66h-14.78v-4.47h1.2v-10.86h-1.2v-4.47h7.9v4.47h-1.2Z"/>
        <path class="cls-1" d="M373.41,272.57v4.47h-1.01l4.39,10.86h1.2v4.47h-7.68v-4.47h.65l-.29-.88h-5.3l-.31.88h.65v4.47h-7.66v-4.47h1.2l4.39-10.86h-.86v-4.47h10.63ZM366.74,283.22h2.54l-1.27-3.14-1.27,3.14Z"/>
        <path class="cls-1" d="M386.01,292.37h-5.09v-5.06h5.09v5.06Z"/>
      </g>
      <g>
        <path class="cls-1" d="M54.01,97.29l30.56-8.34,6.76,24.75-69.46,18.97-6.06-22.2,31.35-54.18-1.69-6.18-3.97-2.24-10.19,2.78-2.28,3.95,2.63,9.63-26.51,7.24L0,52.56l11.2-19.56,38.66-10.56,19.58,11.13,6.87,25.17-22.31,38.55Z"/>
        <path class="cls-1" d="M94.23,28.76l13.9-17.73,43.71-5.38,17.78,13.83,8.23,66.77-13.91,17.62-43.71,5.38-17.77-13.71-8.23-66.77ZM143.53,32.39l-3.49-2.79-14.53,1.79-2.82,3.57,5.87,47.65,3.59,2.66,14.53-1.79,2.72-3.44-5.87-47.65Z"/>
        <path class="cls-1" d="M192.3,17.58l15.51-16.34,44.02-1.23,16.4,15.45,1.89,67.25-15.51,16.22-44.02,1.23-16.4-15.33-1.89-67.25ZM241.04,25.85l-3.21-3.11-14.63.41-3.15,3.29,1.35,47.99,3.33,2.99,14.63-.41,3.03-3.17-1.35-47.99Z"/>
        <path class="cls-1" d="M337.05,17.19l17.49-14.2,43.81,4.47,14.26,17.44-6.83,66.93-17.48,14.08-43.81-4.47-14.27-17.32,6.83-66.93ZM384.3,31.7l-2.78-3.5-14.56-1.49-3.55,2.85-4.88,47.76,2.91,3.39,14.56,1.49,3.42-2.75,4.88-47.76Z"/>
        <path class="cls-1" d="M456.11,94.65l5.82,1.46-5.44,21.66-38.29-9.62,5.44-21.66,5.82,1.46,13.22-52.66-5.82-1.46,5.44-21.66,38.29,9.61-5.44,21.66-5.82-1.46-3.41,13.6,17.26-10.12-2.56-.64,5.44-21.66,46.09,11.57-5.44,21.66-8.03-2.02-32.84,19.44,20.32,33.39,7.33,1.84-5.44,21.66-46.09-11.57,5.44-21.66,2.68.67-7.11-11.58-5.7,3.47-1.16,4.61Z"/>
      </g>
    </g>
  </g>
</svg>