<svg xmlns="http://www.w3.org/2000/svg" viewBox="0 0 576 104.23"><defs><style>.cls-1{fill:#fff;}</style></defs><g id="Layer_2" data-name="Layer 2"><g id="Layer_1-2" data-name="Layer 1"><polygon class="cls-1" points="60.12 0 60.12 40.6 21.77 40.6 21.77 0 0 0 0 101.56 21.77 101.56 21.77 57.03 60.4 57.03 60.4 101.56 82.17 101.56 82.17 0 60.12 0"/><path class="cls-1" d="M110.59,58.29C111,50,114.8,42.42,123.93,42.42c12.08,0,12.37,12.64,12.37,15.87Zm46.92,13.07c.28-5.9.56-16.3-4.22-26-6.46-13.2-18.54-17.14-28.65-17.14a35.58,35.58,0,0,0-20,5.9C92.75,42.42,89.94,56.19,89.94,67.71s2.67,20.93,9.13,27.67c7.45,7.72,19,8.85,25,8.85,10.4,0,19.67-2.81,24.87-8.29a23.73,23.73,0,0,0,6.74-15.45h-19c-2,7.86-7.17,9.83-12.36,9.83-14.47,0-14.47-14.33-14.47-19Z"/><path class="cls-1" d="M206.47,68.13c0,7.58-.28,13.06-3.93,17.56a11.81,11.81,0,0,1-8.85,4.07c-6.89,0-10.12-5.34-10.12-10.11,0-8.43,9.55-12.65,22.9-11.52M228,101.56a86,86,0,0,1-1.69-18l-.14-28.52c0-3.23-.14-11.65-4.91-17.41-7-8.15-19.39-9.13-25.29-9.13-6.74,0-15,1.12-21.49,5.75-7.44,5.34-7.86,12.93-8,16.72H186.8a10.65,10.65,0,0,1,1.55-6.32,9.44,9.44,0,0,1,7.86-3.93c2,0,7.45.7,9.28,5.9.84,2.52,1,4.77,1,9.41-6.88,0-19.39,0-28.09,3.93-13.07,6-15,16.44-15,22.05a22,22,0,0,0,6.18,15.6c2.81,2.66,7.44,5.61,17.69,5.61,3.94,0,13.35,0,21.22-11.37a57,57,0,0,0,.7,9.69Z"/><path class="cls-1" d="M236.17,101.56H257v-35c0-8.85,1.26-19.66,22.33-17.7V30.2c-16.85-.84-21.49,7.73-24.16,13.77l-.42-13.63H235.19c.42,4.08,1,14.33,1,17.7Z"/><path class="cls-1" d="M322.53,87a52.72,52.72,0,0,1-7,.42c-9.27,0-9.27-4.07-9.41-10.53v-32H323V31H306.09V9.55l-20.65,7.59V83.72c0,5.9,0,19.1,20.93,19.1a64.67,64.67,0,0,0,16.16-2.24Z"/><rect class="cls-1" x="329.88" width="20.79" height="101.56"/><path class="cls-1" d="M400.69,68.13c0,7.58-.28,13.06-3.93,17.56a11.81,11.81,0,0,1-8.85,4.07c-6.88,0-10.11-5.34-10.11-10.11,0-8.43,9.55-12.65,22.89-11.52m21.49,33.43a86,86,0,0,1-1.68-18l-.14-28.52c0-3.23-.14-11.65-4.92-17.41-7-8.15-19.38-9.13-25.28-9.13-6.75,0-15,1.12-21.5,5.75-7.44,5.34-7.86,12.93-8,16.72H381a10.7,10.7,0,0,1,1.54-6.32,9.47,9.47,0,0,1,7.87-3.93c2,0,7.44.7,9.27,5.9.84,2.52,1,4.77,1,9.41-6.88,0-19.38,0-28.09,3.93-13.07,6-15,16.44-15,22.05a22,22,0,0,0,6.18,15.6c2.81,2.66,7.44,5.61,17.7,5.61,3.93,0,13.34,0,21.21-11.37a57,57,0,0,0,.7,9.69Z"/><path class="cls-1" d="M429.08,101.56H450V60c0-5.48,1.26-9,2.52-10.82a12.94,12.94,0,0,1,10.82-5.47,10.81,10.81,0,0,1,10.11,6c1.13,2.24,1.13,4.77,1.13,7.72v44.11H495.8V63.21c0-13.2-.42-16.85-2-21.21-1.82-4.92-7.72-13.34-21.63-13.34-15.45,0-21.07,9.13-23,12.36l-.56-10.68H428.66c.42,4.92.42,12.64.42,12.92Z"/><path class="cls-1" d="M524.31,67.14c0-7.16,1.54-23.88,15.45-23.88,9.41,0,15.45,7.59,15.45,21.5,0,3.51-.28,10.81-3.37,16.71a15,15,0,0,1-13.2,8c-10.4,0-14.33-10.54-14.33-22.34m30.2-27.81c-1.83-2.53-7.16-9.69-20-9.69-18.54,0-31.32,14.61-31.32,38.07,0,22.19,11.24,35.25,30.2,35.25a24.8,24.8,0,0,0,13.76-3.65,19.11,19.11,0,0,0,7.17-8l.56,10.26H576c-.28-2.67-.56-7.31-.56-11.52V.14H554.51Z"/></g></g></svg>